<?xml version="1.0" standalone="no"?><svg xmlns="http://www.w3.org/2000/svg" viewBox="0 0 1440 320"><path fill="#0099ff" fill-opacity="1" d="M0,224L21.8,218.7C43.6,213,87,203,131,176C174.5,149,218,107,262,80C305.5,53,349,43,393,85.3C436.4,128,480,224,524,266.7C567.3,309,611,299,655,266.7C698.2,235,742,181,785,165.3C829.1,149,873,171,916,192C960,213,1004,235,1047,202.7C1090.9,171,1135,85,1178,74.7C1221.8,64,1265,128,1309,144C1352.7,160,1396,128,1418,112L1440,96L1440,0L1418.2,0C1396.4,0,1353,0,1309,0C1265.5,0,1222,0,1178,0C1134.5,0,1091,0,1047,0C1003.6,0,960,0,916,0C872.7,0,829,0,785,0C741.8,0,698,0,655,0C610.9,0,567,0,524,0C480,0,436,0,393,0C349.1,0,305,0,262,0C218.2,0,175,0,131,0C87.3,0,44,0,22,0L0,0Z"></path></svg>