<svg width="1440" height="320" viewBox="0 0 1440 320" fill="none" xmlns="http://www.w3.org/2000/svg">
<rect width="1440" height="320" fill="#F5F5F5"/>
<g clip-path="url(#clip0_0_1)">
<g filter="url(#filter0_dd_0_1)">
<path d="M0 224L21.8 218.7C43.6 213 87 203 131 176C174.5 149 218 107 262 80C305.5 53 349 43 393 85.3C436.4 128 480 224 524 266.7C567.3 309 611 299 655 266.7C698.2 235 742 181 785 165.3C829.1 149 873 171 916 192C960 213 1004 235 1047 202.7C1090.9 171 1135 85 1178 74.7C1221.8 64 1265 128 1309 144C1352.7 160 1396 128 1418 112L1440 96V0H1418.2C1396.4 0 1353 0 1309 0C1265.5 0 1222 0 1178 0C1134.5 0 1091 0 1047 0C1003.6 0 960 0 916 0C872.7 0 829 0 785 0C741.8 0 698 0 655 0C610.9 0 567 0 524 0C480 0 436 0 393 0C349.1 0 305 0 262 0C218.2 0 175 0 131 0C87.3 0 44 0 22 0H0V224Z" fill="#0A6DAF"/>
<path d="M1439.5 0.5V95.7451L1417.71 111.596C1406.7 119.6 1390.42 131.565 1371.44 139.539C1352.47 147.512 1330.86 151.471 1309.17 143.53H1309.17C1298.24 139.555 1287.34 132.59 1276.43 124.516C1265.5 116.426 1254.65 107.301 1243.73 98.9404C1232.83 90.604 1221.91 83.0762 1210.96 78.3057C1200 73.5325 1188.97 71.5049 1177.88 74.2139C1167.01 76.8192 1156.11 84.1945 1145.23 94.2197C1134.33 104.252 1123.4 116.981 1112.45 130.358C1101.5 143.746 1090.54 157.773 1079.56 170.447C1068.59 183.121 1057.63 194.405 1046.71 202.295L1046.7 202.3C1025.33 218.351 1003.73 220.912 981.967 216.846C962.895 213.282 943.716 204.633 924.469 195.486L916.216 191.549C894.728 181.055 872.961 170.283 851.047 164.181C829.12 158.075 807.007 156.633 784.828 164.83C763.228 172.717 741.464 190.205 719.742 209.627C697.99 229.076 676.278 250.466 654.704 266.297C632.739 282.421 610.908 292.934 589.209 294.176C567.536 295.416 545.918 287.413 524.35 266.343L524.349 266.341L523.319 265.333C501.717 243.96 480.194 209.885 458.698 175.733C436.886 141.078 415.102 106.344 393.351 84.9434L393.347 84.9395L392.312 83.9541C370.577 63.4589 348.921 55.5807 327.299 56.1631C305.358 56.7541 283.519 66.0555 261.738 79.5742C239.709 93.0925 217.81 110.361 196.002 127.607C174.184 144.861 152.459 162.092 130.738 175.574C86.8167 202.526 43.4935 212.511 21.6816 218.214L0.5 223.363V0.5H1439.5Z" stroke="black"/>
</g>
<g filter="url(#filter1_d_0_1)">
<mask id="path-3-outside-1_0_1" maskUnits="userSpaceOnUse" x="531" y="69" width="368" height="51" fill="black">
<rect fill="white" x="531" y="69" width="368" height="51"/>
<path d="M573.909 94.7273C573.909 99.6364 573.023 103.879 571.25 107.455C569.477 111.03 567.045 113.788 563.955 115.727C560.864 117.667 557.333 118.636 553.364 118.636C549.394 118.636 545.864 117.667 542.773 115.727C539.682 113.788 537.25 111.03 535.477 107.455C533.705 103.879 532.818 99.6364 532.818 94.7273C532.818 89.8182 533.705 85.5758 535.477 82C537.25 78.4242 539.682 75.6667 542.773 73.7273C545.864 71.7879 549.394 70.8182 553.364 70.8182C557.333 70.8182 560.864 71.7879 563.955 73.7273C567.045 75.6667 569.477 78.4242 571.25 82C573.023 85.5758 573.909 89.8182 573.909 94.7273ZM568.455 94.7273C568.455 90.697 567.78 87.2955 566.432 84.5227C565.098 81.75 563.288 79.6515 561 78.2273C558.727 76.803 556.182 76.0909 553.364 76.0909C550.545 76.0909 547.992 76.803 545.705 78.2273C543.432 79.6515 541.621 81.75 540.273 84.5227C538.939 87.2955 538.273 90.697 538.273 94.7273C538.273 98.7576 538.939 102.159 540.273 104.932C541.621 107.705 543.432 109.803 545.705 111.227C547.992 112.652 550.545 113.364 553.364 113.364C556.182 113.364 558.727 112.652 561 111.227C563.288 109.803 565.098 107.705 566.432 104.932C567.78 102.159 568.455 98.7576 568.455 94.7273ZM583.386 118V71.4545H599.114C602.75 71.4545 605.735 72.0758 608.068 73.3182C610.402 74.5455 612.129 76.2348 613.25 78.3864C614.371 80.5379 614.932 82.9848 614.932 85.7273C614.932 88.4697 614.371 90.9015 613.25 93.0227C612.129 95.1439 610.409 96.8106 608.091 98.0227C605.773 99.2197 602.811 99.8182 599.205 99.8182H586.477V94.7273H599.023C601.508 94.7273 603.508 94.3636 605.023 93.6364C606.553 92.9091 607.659 91.8788 608.341 90.5455C609.038 89.197 609.386 87.5909 609.386 85.7273C609.386 83.8636 609.038 82.2348 608.341 80.8409C607.644 79.447 606.53 78.3712 605 77.6136C603.47 76.8409 601.447 76.4545 598.932 76.4545H589.023V118H583.386ZM605.295 97.0909L616.75 118H610.205L598.932 97.0909H605.295ZM681.597 94.7273C681.597 99.6364 680.71 103.879 678.938 107.455C677.165 111.03 674.733 113.788 671.642 115.727C668.551 117.667 665.021 118.636 661.051 118.636C657.081 118.636 653.551 117.667 650.46 115.727C647.369 113.788 644.938 111.03 643.165 107.455C641.392 103.879 640.506 99.6364 640.506 94.7273C640.506 89.8182 641.392 85.5758 643.165 82C644.938 78.4242 647.369 75.6667 650.46 73.7273C653.551 71.7879 657.081 70.8182 661.051 70.8182C665.021 70.8182 668.551 71.7879 671.642 73.7273C674.733 75.6667 677.165 78.4242 678.938 82C680.71 85.5758 681.597 89.8182 681.597 94.7273ZM676.142 94.7273C676.142 90.697 675.468 87.2955 674.119 84.5227C672.786 81.75 670.975 79.6515 668.688 78.2273C666.415 76.803 663.869 76.0909 661.051 76.0909C658.233 76.0909 655.68 76.803 653.392 78.2273C651.119 79.6515 649.309 81.75 647.96 84.5227C646.627 87.2955 645.96 90.697 645.96 94.7273C645.96 98.7576 646.627 102.159 647.96 104.932C649.309 107.705 651.119 109.803 653.392 111.227C655.68 112.652 658.233 113.364 661.051 113.364C663.869 113.364 666.415 112.652 668.688 111.227C670.975 109.803 672.786 107.705 674.119 104.932C675.468 102.159 676.142 98.7576 676.142 94.7273ZM691.074 118V71.4545H706.801C710.438 71.4545 713.422 72.0758 715.756 73.3182C718.089 74.5455 719.816 76.2348 720.938 78.3864C722.059 80.5379 722.619 82.9848 722.619 85.7273C722.619 88.4697 722.059 90.9015 720.938 93.0227C719.816 95.1439 718.097 96.8106 715.778 98.0227C713.46 99.2197 710.498 99.8182 706.892 99.8182H694.165V94.7273H706.71C709.195 94.7273 711.195 94.3636 712.71 93.6364C714.241 92.9091 715.347 91.8788 716.028 90.5455C716.725 89.197 717.074 87.5909 717.074 85.7273C717.074 83.8636 716.725 82.2348 716.028 80.8409C715.331 79.447 714.218 78.3712 712.688 77.6136C711.157 76.8409 709.134 76.4545 706.619 76.4545H696.71V118H691.074ZM712.983 97.0909L724.438 118H717.892L706.619 97.0909H712.983ZM732.011 118V71.4545H748.284C751.527 71.4545 754.201 72.0152 756.307 73.1364C758.413 74.2424 759.981 75.7348 761.011 77.6136C762.042 79.4773 762.557 81.5455 762.557 83.8182C762.557 85.8182 762.201 87.4697 761.489 88.7727C760.792 90.0758 759.867 91.1061 758.716 91.8636C757.58 92.6212 756.345 93.1818 755.011 93.5455V94C756.436 94.0909 757.867 94.5909 759.307 95.5C760.746 96.4091 761.951 97.7121 762.92 99.4091C763.89 101.106 764.375 103.182 764.375 105.636C764.375 107.97 763.845 110.068 762.784 111.932C761.723 113.795 760.049 115.273 757.761 116.364C755.473 117.455 752.496 118 748.83 118H732.011ZM737.648 113H748.83C752.511 113 755.125 112.288 756.67 110.864C758.231 109.424 759.011 107.682 759.011 105.636C759.011 104.061 758.61 102.606 757.807 101.273C757.004 99.9242 755.86 98.8485 754.375 98.0455C752.89 97.2273 751.133 96.8182 749.102 96.8182H737.648V113ZM737.648 91.9091H748.102C749.799 91.9091 751.33 91.5758 752.693 90.9091C754.072 90.2424 755.163 89.303 755.966 88.0909C756.784 86.8788 757.193 85.4545 757.193 83.8182C757.193 81.7727 756.481 80.0379 755.057 78.6136C753.633 77.1742 751.375 76.4545 748.284 76.4545H737.648V91.9091ZM775.545 118H769.636L786.727 71.4545H792.545L809.636 118H803.727L789.818 78.8182H789.455L775.545 118ZM777.727 99.8182H801.545V104.818H777.727V99.8182ZM852.153 86H846.517C846.184 84.3788 845.6 82.9545 844.767 81.7273C843.949 80.5 842.949 79.4697 841.767 78.6364C840.6 77.7879 839.305 77.1515 837.881 76.7273C836.456 76.303 834.972 76.0909 833.426 76.0909C830.608 76.0909 828.055 76.803 825.767 78.2273C823.494 79.6515 821.684 81.75 820.335 84.5227C819.002 87.2955 818.335 90.697 818.335 94.7273C818.335 98.7576 819.002 102.159 820.335 104.932C821.684 107.705 823.494 109.803 825.767 111.227C828.055 112.652 830.608 113.364 833.426 113.364C834.972 113.364 836.456 113.152 837.881 112.727C839.305 112.303 840.6 111.674 841.767 110.841C842.949 109.992 843.949 108.955 844.767 107.727C845.6 106.485 846.184 105.061 846.517 103.455H852.153C851.729 105.833 850.956 107.962 849.835 109.841C848.714 111.72 847.32 113.318 845.653 114.636C843.987 115.939 842.116 116.932 840.04 117.614C837.979 118.295 835.775 118.636 833.426 118.636C829.456 118.636 825.926 117.667 822.835 115.727C819.744 113.788 817.313 111.03 815.54 107.455C813.767 103.879 812.881 99.6364 812.881 94.7273C812.881 89.8182 813.767 85.5758 815.54 82C817.313 78.4242 819.744 75.6667 822.835 73.7273C825.926 71.7879 829.456 70.8182 833.426 70.8182C835.775 70.8182 837.979 71.1591 840.04 71.8409C842.116 72.5227 843.987 73.5227 845.653 74.8409C847.32 76.1439 848.714 77.7348 849.835 79.6136C850.956 81.4773 851.729 83.6061 852.153 86ZM861.261 118V71.4545H866.898V92.1818H891.716V71.4545H897.352V118H891.716V97.1818H866.898V118H861.261Z"/>
</mask>
<path d="M573.909 94.7273C573.909 99.6364 573.023 103.879 571.25 107.455C569.477 111.03 567.045 113.788 563.955 115.727C560.864 117.667 557.333 118.636 553.364 118.636C549.394 118.636 545.864 117.667 542.773 115.727C539.682 113.788 537.25 111.03 535.477 107.455C533.705 103.879 532.818 99.6364 532.818 94.7273C532.818 89.8182 533.705 85.5758 535.477 82C537.25 78.4242 539.682 75.6667 542.773 73.7273C545.864 71.7879 549.394 70.8182 553.364 70.8182C557.333 70.8182 560.864 71.7879 563.955 73.7273C567.045 75.6667 569.477 78.4242 571.25 82C573.023 85.5758 573.909 89.8182 573.909 94.7273ZM568.455 94.7273C568.455 90.697 567.78 87.2955 566.432 84.5227C565.098 81.75 563.288 79.6515 561 78.2273C558.727 76.803 556.182 76.0909 553.364 76.0909C550.545 76.0909 547.992 76.803 545.705 78.2273C543.432 79.6515 541.621 81.75 540.273 84.5227C538.939 87.2955 538.273 90.697 538.273 94.7273C538.273 98.7576 538.939 102.159 540.273 104.932C541.621 107.705 543.432 109.803 545.705 111.227C547.992 112.652 550.545 113.364 553.364 113.364C556.182 113.364 558.727 112.652 561 111.227C563.288 109.803 565.098 107.705 566.432 104.932C567.78 102.159 568.455 98.7576 568.455 94.7273ZM583.386 118V71.4545H599.114C602.75 71.4545 605.735 72.0758 608.068 73.3182C610.402 74.5455 612.129 76.2348 613.25 78.3864C614.371 80.5379 614.932 82.9848 614.932 85.7273C614.932 88.4697 614.371 90.9015 613.25 93.0227C612.129 95.1439 610.409 96.8106 608.091 98.0227C605.773 99.2197 602.811 99.8182 599.205 99.8182H586.477V94.7273H599.023C601.508 94.7273 603.508 94.3636 605.023 93.6364C606.553 92.9091 607.659 91.8788 608.341 90.5455C609.038 89.197 609.386 87.5909 609.386 85.7273C609.386 83.8636 609.038 82.2348 608.341 80.8409C607.644 79.447 606.53 78.3712 605 77.6136C603.47 76.8409 601.447 76.4545 598.932 76.4545H589.023V118H583.386ZM605.295 97.0909L616.75 118H610.205L598.932 97.0909H605.295ZM681.597 94.7273C681.597 99.6364 680.71 103.879 678.938 107.455C677.165 111.03 674.733 113.788 671.642 115.727C668.551 117.667 665.021 118.636 661.051 118.636C657.081 118.636 653.551 117.667 650.46 115.727C647.369 113.788 644.938 111.03 643.165 107.455C641.392 103.879 640.506 99.6364 640.506 94.7273C640.506 89.8182 641.392 85.5758 643.165 82C644.938 78.4242 647.369 75.6667 650.46 73.7273C653.551 71.7879 657.081 70.8182 661.051 70.8182C665.021 70.8182 668.551 71.7879 671.642 73.7273C674.733 75.6667 677.165 78.4242 678.938 82C680.71 85.5758 681.597 89.8182 681.597 94.7273ZM676.142 94.7273C676.142 90.697 675.468 87.2955 674.119 84.5227C672.786 81.75 670.975 79.6515 668.688 78.2273C666.415 76.803 663.869 76.0909 661.051 76.0909C658.233 76.0909 655.68 76.803 653.392 78.2273C651.119 79.6515 649.309 81.75 647.96 84.5227C646.627 87.2955 645.96 90.697 645.96 94.7273C645.96 98.7576 646.627 102.159 647.96 104.932C649.309 107.705 651.119 109.803 653.392 111.227C655.68 112.652 658.233 113.364 661.051 113.364C663.869 113.364 666.415 112.652 668.688 111.227C670.975 109.803 672.786 107.705 674.119 104.932C675.468 102.159 676.142 98.7576 676.142 94.7273ZM691.074 118V71.4545H706.801C710.438 71.4545 713.422 72.0758 715.756 73.3182C718.089 74.5455 719.816 76.2348 720.938 78.3864C722.059 80.5379 722.619 82.9848 722.619 85.7273C722.619 88.4697 722.059 90.9015 720.938 93.0227C719.816 95.1439 718.097 96.8106 715.778 98.0227C713.46 99.2197 710.498 99.8182 706.892 99.8182H694.165V94.7273H706.71C709.195 94.7273 711.195 94.3636 712.71 93.6364C714.241 92.9091 715.347 91.8788 716.028 90.5455C716.725 89.197 717.074 87.5909 717.074 85.7273C717.074 83.8636 716.725 82.2348 716.028 80.8409C715.331 79.447 714.218 78.3712 712.688 77.6136C711.157 76.8409 709.134 76.4545 706.619 76.4545H696.71V118H691.074ZM712.983 97.0909L724.438 118H717.892L706.619 97.0909H712.983ZM732.011 118V71.4545H748.284C751.527 71.4545 754.201 72.0152 756.307 73.1364C758.413 74.2424 759.981 75.7348 761.011 77.6136C762.042 79.4773 762.557 81.5455 762.557 83.8182C762.557 85.8182 762.201 87.4697 761.489 88.7727C760.792 90.0758 759.867 91.1061 758.716 91.8636C757.58 92.6212 756.345 93.1818 755.011 93.5455V94C756.436 94.0909 757.867 94.5909 759.307 95.5C760.746 96.4091 761.951 97.7121 762.92 99.4091C763.89 101.106 764.375 103.182 764.375 105.636C764.375 107.97 763.845 110.068 762.784 111.932C761.723 113.795 760.049 115.273 757.761 116.364C755.473 117.455 752.496 118 748.83 118H732.011ZM737.648 113H748.83C752.511 113 755.125 112.288 756.67 110.864C758.231 109.424 759.011 107.682 759.011 105.636C759.011 104.061 758.61 102.606 757.807 101.273C757.004 99.9242 755.86 98.8485 754.375 98.0455C752.89 97.2273 751.133 96.8182 749.102 96.8182H737.648V113ZM737.648 91.9091H748.102C749.799 91.9091 751.33 91.5758 752.693 90.9091C754.072 90.2424 755.163 89.303 755.966 88.0909C756.784 86.8788 757.193 85.4545 757.193 83.8182C757.193 81.7727 756.481 80.0379 755.057 78.6136C753.633 77.1742 751.375 76.4545 748.284 76.4545H737.648V91.9091ZM775.545 118H769.636L786.727 71.4545H792.545L809.636 118H803.727L789.818 78.8182H789.455L775.545 118ZM777.727 99.8182H801.545V104.818H777.727V99.8182ZM852.153 86H846.517C846.184 84.3788 845.6 82.9545 844.767 81.7273C843.949 80.5 842.949 79.4697 841.767 78.6364C840.6 77.7879 839.305 77.1515 837.881 76.7273C836.456 76.303 834.972 76.0909 833.426 76.0909C830.608 76.0909 828.055 76.803 825.767 78.2273C823.494 79.6515 821.684 81.75 820.335 84.5227C819.002 87.2955 818.335 90.697 818.335 94.7273C818.335 98.7576 819.002 102.159 820.335 104.932C821.684 107.705 823.494 109.803 825.767 111.227C828.055 112.652 830.608 113.364 833.426 113.364C834.972 113.364 836.456 113.152 837.881 112.727C839.305 112.303 840.6 111.674 841.767 110.841C842.949 109.992 843.949 108.955 844.767 107.727C845.6 106.485 846.184 105.061 846.517 103.455H852.153C851.729 105.833 850.956 107.962 849.835 109.841C848.714 111.72 847.32 113.318 845.653 114.636C843.987 115.939 842.116 116.932 840.04 117.614C837.979 118.295 835.775 118.636 833.426 118.636C829.456 118.636 825.926 117.667 822.835 115.727C819.744 113.788 817.313 111.03 815.54 107.455C813.767 103.879 812.881 99.6364 812.881 94.7273C812.881 89.8182 813.767 85.5758 815.54 82C817.313 78.4242 819.744 75.6667 822.835 73.7273C825.926 71.7879 829.456 70.8182 833.426 70.8182C835.775 70.8182 837.979 71.1591 840.04 71.8409C842.116 72.5227 843.987 73.5227 845.653 74.8409C847.32 76.1439 848.714 77.7348 849.835 79.6136C850.956 81.4773 851.729 83.6061 852.153 86ZM861.261 118V71.4545H866.898V92.1818H891.716V71.4545H897.352V118H891.716V97.1818H866.898V118H861.261Z" fill="#FFFAFA"/>
<path d="M571.25 107.455L570.354 107.01L570.354 107.01L571.25 107.455ZM563.955 115.727L564.486 116.574L564.486 116.574L563.955 115.727ZM542.773 115.727L542.241 116.574L542.241 116.574L542.773 115.727ZM535.477 107.455L536.373 107.01L536.373 107.01L535.477 107.455ZM535.477 82L534.581 81.5558L535.477 82ZM563.955 73.7273L564.486 72.8802L564.486 72.8802L563.955 73.7273ZM571.25 82L570.354 82.4442L570.354 82.4442L571.25 82ZM566.432 84.5227L565.531 84.9561L565.533 84.9601L566.432 84.5227ZM561 78.2273L560.469 79.0746L560.472 79.0762L561 78.2273ZM545.705 78.2273L545.176 77.3783L545.174 77.3799L545.705 78.2273ZM540.273 84.5227L539.373 84.0854L539.372 84.0894L540.273 84.5227ZM540.273 104.932L539.372 105.365L539.373 105.369L540.273 104.932ZM545.705 111.227L545.174 112.075L545.176 112.076L545.705 111.227ZM561 111.227L560.472 110.378L560.469 110.38L561 111.227ZM566.432 104.932L565.533 104.494L565.531 104.498L566.432 104.932ZM573.909 94.7273H572.909C572.909 99.5171 572.044 103.601 570.354 107.01L571.25 107.455L572.146 107.899C574.001 104.157 574.909 99.7557 574.909 94.7273H573.909ZM571.25 107.455L570.354 107.01C568.655 110.437 566.343 113.048 563.423 114.88L563.955 115.727L564.486 116.574C567.748 114.528 570.299 111.624 572.146 107.899L571.25 107.455ZM563.955 115.727L563.423 114.88C560.505 116.711 557.162 117.636 553.364 117.636V118.636V119.636C557.504 119.636 561.222 118.622 564.486 116.574L563.955 115.727ZM553.364 118.636V117.636C549.565 117.636 546.222 116.711 543.304 114.88L542.773 115.727L542.241 116.574C545.505 118.622 549.223 119.636 553.364 119.636V118.636ZM542.773 115.727L543.304 114.88C540.384 113.048 538.072 110.437 536.373 107.01L535.477 107.455L534.581 107.899C536.428 111.624 538.979 114.528 542.241 116.574L542.773 115.727ZM535.477 107.455L536.373 107.01C534.683 103.601 533.818 99.5171 533.818 94.7273H532.818H531.818C531.818 99.7557 532.726 104.157 534.581 107.899L535.477 107.455ZM532.818 94.7273H533.818C533.818 89.9375 534.683 85.8538 536.373 82.4442L535.477 82L534.581 81.5558C532.726 85.2978 531.818 89.6989 531.818 94.7273H532.818ZM535.477 82L536.373 82.4442C538.072 79.0177 540.384 76.4065 543.304 74.5743L542.773 73.7273L542.241 72.8802C538.979 74.9268 536.428 77.8308 534.581 81.5558L535.477 82ZM542.773 73.7273L543.304 74.5743C546.222 72.7436 549.565 71.8182 553.364 71.8182V70.8182V69.8182C549.223 69.8182 545.505 70.8321 542.241 72.8802L542.773 73.7273ZM553.364 70.8182V71.8182C557.162 71.8182 560.505 72.7436 563.423 74.5743L563.955 73.7273L564.486 72.8802C561.222 70.8321 557.504 69.8182 553.364 69.8182V70.8182ZM563.955 73.7273L563.423 74.5743C566.343 76.4065 568.655 79.0177 570.354 82.4442L571.25 82L572.146 81.5558C570.299 77.8308 567.748 74.9268 564.486 72.8802L563.955 73.7273ZM571.25 82L570.354 82.4442C572.044 85.8538 572.909 89.9375 572.909 94.7273H573.909H574.909C574.909 89.6989 574.001 85.2978 572.146 81.5558L571.25 82ZM568.455 94.7273H569.455C569.455 90.5902 568.763 87.0296 567.331 84.0854L566.432 84.5227L565.533 84.9601C566.798 87.5613 567.455 90.8038 567.455 94.7273H568.455ZM566.432 84.5227L567.333 84.0894C565.929 81.1704 563.999 78.9165 561.528 77.3783L561 78.2273L560.472 79.0762C562.576 80.3865 564.268 82.3296 565.531 84.9561L566.432 84.5227ZM561 78.2273L561.531 77.3799C559.091 75.8508 556.36 75.0909 553.364 75.0909V76.0909V77.0909C556.004 77.0909 558.364 77.7553 560.469 79.0746L561 78.2273ZM553.364 76.0909V75.0909C550.368 75.0909 547.63 75.8507 545.176 77.3783L545.705 78.2273L546.233 79.0762C548.355 77.7553 550.723 77.0909 553.364 77.0909V76.0909ZM545.705 78.2273L545.174 77.3799C542.719 78.9178 540.791 81.1699 539.373 84.0854L540.273 84.5227L541.172 84.9601C542.451 82.3301 544.144 80.3852 546.236 79.0746L545.705 78.2273ZM540.273 84.5227L539.372 84.0894C537.956 87.0325 537.273 90.5915 537.273 94.7273H538.273H539.273C539.273 90.8024 539.923 87.5585 541.174 84.9561L540.273 84.5227ZM538.273 94.7273H537.273C537.273 98.863 537.956 102.422 539.372 105.365L540.273 104.932L541.174 104.498C539.923 101.896 539.273 98.6521 539.273 94.7273H538.273ZM540.273 104.932L539.373 105.369C540.791 108.285 542.719 110.537 545.174 112.075L545.705 111.227L546.236 110.38C544.144 109.069 542.451 107.124 541.172 104.494L540.273 104.932ZM545.705 111.227L545.176 112.076C547.63 113.604 550.368 114.364 553.364 114.364V113.364V112.364C550.723 112.364 548.355 111.699 546.233 110.378L545.705 111.227ZM553.364 113.364V114.364C556.36 114.364 559.091 113.604 561.531 112.075L561 111.227L560.469 110.38C558.364 111.699 556.004 112.364 553.364 112.364V113.364ZM561 111.227L561.528 112.076C563.999 110.538 565.929 108.284 567.333 105.365L566.432 104.932L565.531 104.498C564.268 107.125 562.576 109.068 560.472 110.378L561 111.227ZM566.432 104.932L567.331 105.369C568.763 102.425 569.455 98.8644 569.455 94.7273H568.455H567.455C567.455 98.6508 566.798 101.893 565.533 104.494L566.432 104.932ZM583.386 118H582.386V119H583.386V118ZM583.386 71.4545V70.4545H582.386V71.4545H583.386ZM608.068 73.3182L607.598 74.2009L607.603 74.2032L608.068 73.3182ZM613.25 78.3864L612.363 78.8485L612.363 78.8485L613.25 78.3864ZM613.25 93.0227L612.366 92.5554L612.366 92.5554L613.25 93.0227ZM608.091 98.0227L608.55 98.9113L608.554 98.9089L608.091 98.0227ZM586.477 99.8182H585.477V100.818H586.477V99.8182ZM586.477 94.7273V93.7273H585.477V94.7273H586.477ZM605.023 93.6364L604.593 92.7332L604.59 92.7348L605.023 93.6364ZM608.341 90.5455L607.453 90.0863L607.451 90.0902L608.341 90.5455ZM605 77.6136L604.549 78.5063L604.556 78.5098L605 77.6136ZM589.023 76.4545V75.4545H588.023V76.4545H589.023ZM589.023 118V119H590.023V118H589.023ZM605.295 97.0909L606.172 96.6105L605.888 96.0909H605.295V97.0909ZM616.75 118V119H618.438L617.627 117.52L616.75 118ZM610.205 118L609.324 118.475L609.608 119H610.205V118ZM598.932 97.0909V96.0909H597.257L598.052 97.5655L598.932 97.0909ZM583.386 118H584.386V71.4545H583.386H582.386V118H583.386ZM583.386 71.4545V72.4545H599.114V71.4545V70.4545H583.386V71.4545ZM599.114 71.4545V72.4545C602.645 72.4545 605.454 73.0589 607.598 74.2009L608.068 73.3182L608.538 72.4355C606.016 71.0926 602.855 70.4545 599.114 70.4545V71.4545ZM608.068 73.3182L607.603 74.2032C609.772 75.3443 611.344 76.8933 612.363 78.8485L613.25 78.3864L614.137 77.9242C612.913 75.5764 611.031 73.7466 608.534 72.4331L608.068 73.3182ZM613.25 78.3864L612.363 78.8485C613.401 80.8396 613.932 83.1246 613.932 85.7273H614.932H615.932C615.932 82.8451 615.342 80.2361 614.137 77.9242L613.25 78.3864ZM614.932 85.7273H613.932C613.932 88.3303 613.401 90.5976 612.366 92.5554L613.25 93.0227L614.134 93.49C615.342 91.2054 615.932 88.6091 615.932 85.7273H614.932ZM613.25 93.0227L612.366 92.5554C611.348 94.4814 609.783 96.0094 607.628 97.1366L608.091 98.0227L608.554 98.9089C611.035 97.6118 612.91 95.8065 614.134 93.49L613.25 93.0227ZM608.091 98.0227L607.632 97.1342C605.499 98.2354 602.709 98.8182 599.205 98.8182V99.8182V100.818C602.913 100.818 606.046 100.204 608.55 98.9113L608.091 98.0227ZM599.205 99.8182V98.8182H586.477V99.8182V100.818H599.205V99.8182ZM586.477 99.8182H587.477V94.7273H586.477H585.477V99.8182H586.477ZM586.477 94.7273V95.7273H599.023V94.7273V93.7273H586.477V94.7273ZM599.023 94.7273V95.7273C601.592 95.7273 603.756 95.3534 605.455 94.5379L605.023 93.6364L604.59 92.7348C603.259 93.3738 601.424 93.7273 599.023 93.7273V94.7273ZM605.023 93.6364L605.452 94.5396C607.154 93.7308 608.436 92.5555 609.231 91.0007L608.341 90.5455L607.451 90.0902C606.882 91.2021 605.952 92.0873 604.593 92.7332L605.023 93.6364ZM608.341 90.5455L609.229 91.0046C610.014 89.4854 610.386 87.7148 610.386 85.7273H609.386H608.386C608.386 87.467 608.061 88.9085 607.453 90.0863L608.341 90.5455ZM609.386 85.7273H610.386C610.386 83.7385 610.014 81.9511 609.235 80.3937L608.341 80.8409L607.446 81.2881C608.062 82.5186 608.386 83.9888 608.386 85.7273H609.386ZM608.341 80.8409L609.235 80.3937C608.432 78.7862 607.149 77.5618 605.444 76.7174L605 77.6136L604.556 78.5098C605.911 79.1806 606.856 80.1077 607.446 81.2881L608.341 80.8409ZM605 77.6136L605.451 76.721C603.731 75.8525 601.536 75.4545 598.932 75.4545V76.4545V77.4545C601.358 77.4545 603.209 77.8293 604.549 78.5063L605 77.6136ZM598.932 76.4545V75.4545H589.023V76.4545V77.4545H598.932V76.4545ZM589.023 76.4545H588.023V118H589.023H590.023V76.4545H589.023ZM589.023 118V117H583.386V118V119H589.023V118ZM605.295 97.0909L604.418 97.5714L615.873 118.48L616.75 118L617.627 117.52L606.172 96.6105L605.295 97.0909ZM616.75 118V117H610.205V118V119H616.75V118ZM610.205 118L611.085 117.525L599.812 96.6164L598.932 97.0909L598.052 97.5655L609.324 118.475L610.205 118ZM598.932 97.0909V98.0909H605.295V97.0909V96.0909H598.932V97.0909ZM678.938 107.455L678.042 107.01L678.042 107.01L678.938 107.455ZM671.642 115.727L672.174 116.574L672.174 116.574L671.642 115.727ZM650.46 115.727L649.929 116.574L649.929 116.574L650.46 115.727ZM643.165 107.455L644.061 107.01L644.061 107.01L643.165 107.455ZM643.165 82L642.269 81.5558L643.165 82ZM671.642 73.7273L672.174 72.8802L672.174 72.8802L671.642 73.7273ZM678.938 82L678.042 82.4442L678.042 82.4442L678.938 82ZM674.119 84.5227L673.218 84.9561L673.22 84.9601L674.119 84.5227ZM668.688 78.2273L668.156 79.0746L668.159 79.0762L668.688 78.2273ZM653.392 78.2273L652.864 77.3783L652.861 77.3799L653.392 78.2273ZM647.96 84.5227L647.061 84.0854L647.059 84.0894L647.96 84.5227ZM647.96 104.932L647.059 105.365L647.061 105.369L647.96 104.932ZM653.392 111.227L652.861 112.075L652.864 112.076L653.392 111.227ZM668.688 111.227L668.159 110.378L668.156 110.38L668.688 111.227ZM674.119 104.932L673.22 104.494L673.218 104.498L674.119 104.932ZM681.597 94.7273H680.597C680.597 99.5171 679.732 103.601 678.042 107.01L678.938 107.455L679.833 107.899C681.689 104.157 682.597 99.7557 682.597 94.7273H681.597ZM678.938 107.455L678.042 107.01C676.343 110.437 674.031 113.048 671.111 114.88L671.642 115.727L672.174 116.574C675.435 114.528 677.987 111.624 679.833 107.899L678.938 107.455ZM671.642 115.727L671.111 114.88C668.193 116.711 664.85 117.636 661.051 117.636V118.636V119.636C665.192 119.636 668.909 118.622 672.174 116.574L671.642 115.727ZM661.051 118.636V117.636C657.252 117.636 653.909 116.711 650.992 114.88L650.46 115.727L649.929 116.574C653.193 118.622 656.911 119.636 661.051 119.636V118.636ZM650.46 115.727L650.992 114.88C648.072 113.048 645.759 110.437 644.061 107.01L643.165 107.455L642.269 107.899C644.116 111.624 646.667 114.528 649.929 116.574L650.46 115.727ZM643.165 107.455L644.061 107.01C642.37 103.601 641.506 99.5171 641.506 94.7273H640.506H639.506C639.506 99.7557 640.414 104.157 642.269 107.899L643.165 107.455ZM640.506 94.7273H641.506C641.506 89.9375 642.37 85.8538 644.061 82.4442L643.165 82L642.269 81.5558C640.414 85.2978 639.506 89.6989 639.506 94.7273H640.506ZM643.165 82L644.061 82.4442C645.759 79.0177 648.072 76.4065 650.992 74.5743L650.46 73.7273L649.929 72.8802C646.667 74.9268 644.116 77.8308 642.269 81.5558L643.165 82ZM650.46 73.7273L650.992 74.5743C653.909 72.7436 657.252 71.8182 661.051 71.8182V70.8182V69.8182C656.911 69.8182 653.193 70.8321 649.929 72.8802L650.46 73.7273ZM661.051 70.8182V71.8182C664.85 71.8182 668.193 72.7436 671.111 74.5743L671.642 73.7273L672.174 72.8802C668.909 70.8321 665.192 69.8182 661.051 69.8182V70.8182ZM671.642 73.7273L671.111 74.5743C674.031 76.4065 676.343 79.0177 678.042 82.4442L678.938 82L679.833 81.5558C677.987 77.8308 675.435 74.9268 672.174 72.8802L671.642 73.7273ZM678.938 82L678.042 82.4442C679.732 85.8538 680.597 89.9375 680.597 94.7273H681.597H682.597C682.597 89.6989 681.689 85.2978 679.833 81.5558L678.938 82ZM676.142 94.7273H677.142C677.142 90.5902 676.45 87.0296 675.019 84.0854L674.119 84.5227L673.22 84.9601C674.485 87.5613 675.142 90.8038 675.142 94.7273H676.142ZM674.119 84.5227L675.021 84.0894C673.617 81.1704 671.687 78.9165 669.216 77.3783L668.688 78.2273L668.159 79.0762C670.264 80.3865 671.955 82.3296 673.218 84.9561L674.119 84.5227ZM668.688 78.2273L669.219 77.3799C666.778 75.8508 664.047 75.0909 661.051 75.0909V76.0909V77.0909C663.691 77.0909 666.051 77.7553 668.156 79.0746L668.688 78.2273ZM661.051 76.0909V75.0909C658.055 75.0909 655.317 75.8507 652.864 77.3783L653.392 78.2273L653.921 79.0762C656.042 77.7553 658.411 77.0909 661.051 77.0909V76.0909ZM653.392 78.2273L652.861 77.3799C650.407 78.9178 648.479 81.1699 647.061 84.0854L647.96 84.5227L648.86 84.9601C650.139 82.3301 651.832 80.3852 653.923 79.0746L653.392 78.2273ZM647.96 84.5227L647.059 84.0894C645.644 87.0325 644.96 90.5915 644.96 94.7273H645.96H646.96C646.96 90.8024 647.61 87.5585 648.861 84.9561L647.96 84.5227ZM645.96 94.7273H644.96C644.96 98.863 645.644 102.422 647.059 105.365L647.96 104.932L648.861 104.498C647.61 101.896 646.96 98.6521 646.96 94.7273H645.96ZM647.96 104.932L647.061 105.369C648.479 108.285 650.407 110.537 652.861 112.075L653.392 111.227L653.923 110.38C651.832 109.069 650.139 107.124 648.86 104.494L647.96 104.932ZM653.392 111.227L652.864 112.076C655.317 113.604 658.055 114.364 661.051 114.364V113.364V112.364C658.411 112.364 656.042 111.699 653.921 110.378L653.392 111.227ZM661.051 113.364V114.364C664.047 114.364 666.778 113.604 669.219 112.075L668.688 111.227L668.156 110.38C666.051 111.699 663.691 112.364 661.051 112.364V113.364ZM668.688 111.227L669.216 112.076C671.687 110.538 673.617 108.284 675.021 105.365L674.119 104.932L673.218 104.498C671.955 107.125 670.264 109.068 668.159 110.378L668.688 111.227ZM674.119 104.932L675.019 105.369C676.45 102.425 677.142 98.8644 677.142 94.7273H676.142H675.142C675.142 98.6508 674.485 101.893 673.22 104.494L674.119 104.932ZM691.074 118H690.074V119H691.074V118ZM691.074 71.4545V70.4545H690.074V71.4545H691.074ZM715.756 73.3182L715.286 74.2009L715.29 74.2032L715.756 73.3182ZM720.938 78.3864L720.051 78.8485L720.051 78.8485L720.938 78.3864ZM720.938 93.0227L720.053 92.5554L720.053 92.5554L720.938 93.0227ZM715.778 98.0227L716.237 98.9113L716.242 98.9089L715.778 98.0227ZM694.165 99.8182H693.165V100.818H694.165V99.8182ZM694.165 94.7273V93.7273H693.165V94.7273H694.165ZM712.71 93.6364L712.281 92.7332L712.277 92.7348L712.71 93.6364ZM716.028 90.5455L715.14 90.0863L715.138 90.0902L716.028 90.5455ZM712.688 77.6136L712.237 78.5063L712.244 78.5098L712.688 77.6136ZM696.71 76.4545V75.4545H695.71V76.4545H696.71ZM696.71 118V119H697.71V118H696.71ZM712.983 97.0909L713.86 96.6105L713.575 96.0909H712.983V97.0909ZM724.438 118V119H726.126L725.315 117.52L724.438 118ZM717.892 118L717.012 118.475L717.295 119H717.892V118ZM706.619 97.0909V96.0909H704.944L705.739 97.5655L706.619 97.0909ZM691.074 118H692.074V71.4545H691.074H690.074V118H691.074ZM691.074 71.4545V72.4545H706.801V71.4545V70.4545H691.074V71.4545ZM706.801 71.4545V72.4545C710.332 72.4545 713.141 73.0589 715.286 74.2009L715.756 73.3182L716.226 72.4355C713.704 71.0926 710.543 70.4545 706.801 70.4545V71.4545ZM715.756 73.3182L715.29 74.2032C717.46 75.3443 719.032 76.8933 720.051 78.8485L720.938 78.3864L721.824 77.9242C720.601 75.5764 718.718 73.7466 716.221 72.4331L715.756 73.3182ZM720.938 78.3864L720.051 78.8485C721.088 80.8396 721.619 83.1246 721.619 85.7273H722.619H723.619C723.619 82.8451 723.029 80.2361 721.824 77.9242L720.938 78.3864ZM722.619 85.7273H721.619C721.619 88.3303 721.088 90.5976 720.053 92.5554L720.938 93.0227L721.822 93.49C723.029 91.2054 723.619 88.6091 723.619 85.7273H722.619ZM720.938 93.0227L720.053 92.5554C719.035 94.4814 717.471 96.0094 715.315 97.1366L715.778 98.0227L716.242 98.9089C718.722 97.6118 720.597 95.8065 721.822 93.49L720.938 93.0227ZM715.778 98.0227L715.32 97.1342C713.187 98.2354 710.396 98.8182 706.892 98.8182V99.8182V100.818C710.6 100.818 713.734 100.204 716.237 98.9113L715.778 98.0227ZM706.892 99.8182V98.8182H694.165V99.8182V100.818H706.892V99.8182ZM694.165 99.8182H695.165V94.7273H694.165H693.165V99.8182H694.165ZM694.165 94.7273V95.7273H706.71V94.7273V93.7273H694.165V94.7273ZM706.71 94.7273V95.7273C709.279 95.7273 711.444 95.3534 713.143 94.5379L712.71 93.6364L712.277 92.7348C710.946 93.3738 709.111 93.7273 706.71 93.7273V94.7273ZM712.71 93.6364L713.139 94.5396C714.841 93.7308 716.124 92.5555 716.919 91.0007L716.028 90.5455L715.138 90.0902C714.569 91.2021 713.64 92.0873 712.281 92.7332L712.71 93.6364ZM716.028 90.5455L716.917 91.0046C717.702 89.4854 718.074 87.7148 718.074 85.7273H717.074H716.074C716.074 87.467 715.749 88.9085 715.14 90.0863L716.028 90.5455ZM717.074 85.7273H718.074C718.074 83.7385 717.702 81.9511 716.923 80.3937L716.028 80.8409L715.134 81.2881C715.749 82.5186 716.074 83.9888 716.074 85.7273H717.074ZM716.028 80.8409L716.923 80.3937C716.119 78.7862 714.837 77.5618 713.131 76.7174L712.688 77.6136L712.244 78.5098C713.599 79.1806 714.544 80.1077 715.134 81.2881L716.028 80.8409ZM712.688 77.6136L713.138 76.721C711.418 75.8525 709.223 75.4545 706.619 75.4545V76.4545V77.4545C709.045 77.4545 710.896 77.8293 712.237 78.5063L712.688 77.6136ZM706.619 76.4545V75.4545H696.71V76.4545V77.4545H706.619V76.4545ZM696.71 76.4545H695.71V118H696.71H697.71V76.4545H696.71ZM696.71 118V117H691.074V118V119H696.71V118ZM712.983 97.0909L712.106 97.5714L723.56 118.48L724.438 118L725.315 117.52L713.86 96.6105L712.983 97.0909ZM724.438 118V117H717.892V118V119H724.438V118ZM717.892 118L718.772 117.525L707.5 96.6164L706.619 97.0909L705.739 97.5655L717.012 118.475L717.892 118ZM706.619 97.0909V98.0909H712.983V97.0909V96.0909H706.619V97.0909ZM732.011 118H731.011V119H732.011V118ZM732.011 71.4545V70.4545H731.011V71.4545H732.011ZM756.307 73.1364L755.837 74.0191L755.842 74.0217L756.307 73.1364ZM761.011 77.6136L760.135 78.0945L760.136 78.0975L761.011 77.6136ZM761.489 88.7727L760.611 88.2931L760.607 88.3011L761.489 88.7727ZM758.716 91.8636L758.166 91.0282L758.161 91.0316L758.716 91.8636ZM755.011 93.5455L754.748 92.5807L754.011 92.7817V93.5455H755.011ZM755.011 94H754.011V94.9382L754.948 94.998L755.011 94ZM759.307 95.5L758.773 96.3455L758.773 96.3455L759.307 95.5ZM762.784 111.932L763.653 112.426L763.653 112.426L762.784 111.932ZM757.761 116.364L757.331 115.461L757.331 115.461L757.761 116.364ZM737.648 113H736.648V114H737.648V113ZM756.67 110.864L757.348 111.599L757.348 111.599L756.67 110.864ZM757.807 101.273L756.948 101.784L756.95 101.789L757.807 101.273ZM754.375 98.0455L753.892 98.9213L753.899 98.9251L754.375 98.0455ZM737.648 96.8182V95.8182H736.648V96.8182H737.648ZM737.648 91.9091H736.648V92.9091H737.648V91.9091ZM752.693 90.9091L752.258 90.0088L752.254 90.0107L752.693 90.9091ZM755.966 88.0909L755.137 87.5314L755.132 87.5386L755.966 88.0909ZM755.057 78.6136L754.346 79.317L754.35 79.3207L755.057 78.6136ZM737.648 76.4545V75.4545H736.648V76.4545H737.648ZM732.011 118H733.011V71.4545H732.011H731.011V118H732.011ZM732.011 71.4545V72.4545H748.284V71.4545V70.4545H732.011V71.4545ZM748.284 71.4545V72.4545C751.419 72.4545 753.918 72.9975 755.837 74.0191L756.307 73.1364L756.777 72.2537C754.483 71.0328 751.634 70.4545 748.284 70.4545V71.4545ZM756.307 73.1364L755.842 74.0217C757.794 75.0468 759.209 76.4068 760.135 78.0945L761.011 77.6136L761.888 77.1328C760.753 75.0629 759.032 73.438 756.772 72.251L756.307 73.1364ZM761.011 77.6136L760.136 78.0975C761.079 79.803 761.557 81.7029 761.557 83.8182H762.557H763.557C763.557 81.388 763.004 79.1515 761.887 77.1298L761.011 77.6136ZM762.557 83.8182H761.557C761.557 85.7063 761.22 87.1794 760.611 88.2932L761.489 88.7727L762.366 89.2523C763.182 87.76 763.557 85.93 763.557 83.8182H762.557ZM761.489 88.7727L760.607 88.3011C759.983 89.468 759.169 90.3689 758.166 91.0282L758.716 91.8636L759.266 92.6991C760.566 91.8432 761.601 90.6836 762.37 89.2444L761.489 88.7727ZM758.716 91.8636L758.161 91.0316C757.115 91.7288 755.979 92.245 754.748 92.5807L755.011 93.5455L755.274 94.5102C756.71 94.1186 758.044 93.5136 759.271 92.6957L758.716 91.8636ZM755.011 93.5455H754.011V94H755.011H756.011V93.5455H755.011ZM755.011 94L754.948 94.998C756.175 95.0763 757.448 95.5086 758.773 96.3455L759.307 95.5L759.841 94.6545C758.287 93.6732 756.696 93.1055 755.075 93.002L755.011 94ZM759.307 95.5L758.773 96.3455C760.055 97.1551 761.152 98.3291 762.052 99.9052L762.92 99.4091L763.789 98.913C762.75 97.0951 761.438 95.6631 759.841 94.6545L759.307 95.5ZM762.92 99.4091L762.052 99.9052C762.916 101.417 763.375 103.312 763.375 105.636H764.375H765.375C765.375 103.052 764.864 100.795 763.789 98.913L762.92 99.4091ZM764.375 105.636H763.375C763.375 107.812 762.882 109.737 761.915 111.437L762.784 111.932L763.653 112.426C764.807 110.399 765.375 108.127 765.375 105.636H764.375ZM762.784 111.932L761.915 111.437C760.973 113.093 759.469 114.442 757.331 115.461L757.761 116.364L758.192 117.266C760.63 116.104 762.474 114.498 763.653 112.426L762.784 111.932ZM757.761 116.364L757.331 115.461C755.224 116.466 752.409 117 748.83 117V118V119C752.584 119 755.723 118.443 758.192 117.266L757.761 116.364ZM748.83 118V117H732.011V118V119H748.83V118ZM737.648 113V114H748.83V113V112H737.648V113ZM748.83 113V114C752.59 114 755.522 113.282 757.348 111.599L756.67 110.864L755.993 110.128C754.728 111.293 752.433 112 748.83 112V113ZM756.67 110.864L757.348 111.599C759.106 109.978 760.011 107.973 760.011 105.636H759.011H758.011C758.011 107.391 757.357 108.87 755.992 110.129L756.67 110.864ZM759.011 105.636H760.011C760.011 103.881 759.562 102.248 758.663 100.757L757.807 101.273L756.95 101.789C757.658 102.964 758.011 104.24 758.011 105.636H759.011ZM757.807 101.273L758.666 100.761C757.764 99.2459 756.482 98.048 754.851 97.1658L754.375 98.0455L753.899 98.9251C755.238 99.649 756.244 100.603 756.948 101.784L757.807 101.273ZM754.375 98.0455L754.858 97.1696C753.198 96.2553 751.268 95.8182 749.102 95.8182V96.8182V97.8182C750.997 97.8182 752.582 98.1992 753.892 98.9213L754.375 98.0455ZM749.102 96.8182V95.8182H737.648V96.8182V97.8182H749.102V96.8182ZM737.648 96.8182H736.648V113H737.648H738.648V96.8182H737.648ZM737.648 91.9091V92.9091H748.102V91.9091V90.9091H737.648V91.9091ZM748.102 91.9091V92.9091C749.933 92.9091 751.617 92.5485 753.132 91.8075L752.693 90.9091L752.254 90.0107C751.043 90.603 749.665 90.9091 748.102 90.9091V91.9091ZM752.693 90.9091L753.128 91.8094C754.66 91.0689 755.892 90.0131 756.8 88.6432L755.966 88.0909L755.132 87.5386C754.434 88.593 753.484 89.4159 752.258 90.0088L752.693 90.9091ZM755.966 88.0909L756.795 88.6504C757.738 87.2537 758.193 85.6293 758.193 83.8182H757.193H756.193C756.193 85.2798 755.831 86.5039 755.137 87.5314L755.966 88.0909ZM757.193 83.8182H758.193C758.193 81.5121 757.379 79.5216 755.764 77.9065L755.057 78.6136L754.35 79.3207C755.583 80.5542 756.193 82.0333 756.193 83.8182H757.193ZM755.057 78.6136L755.768 77.9103C754.077 76.2013 751.504 75.4545 748.284 75.4545V76.4545V77.4545C751.246 77.4545 753.188 78.1471 754.346 79.317L755.057 78.6136ZM748.284 76.4545V75.4545H737.648V76.4545V77.4545H748.284V76.4545ZM737.648 76.4545H736.648V91.9091H737.648H738.648V76.4545H737.648ZM775.545 118V119H776.252L776.488 118.335L775.545 118ZM769.636 118L768.698 117.655L768.204 119H769.636V118ZM786.727 71.4545V70.4545H786.029L785.789 71.1099L786.727 71.4545ZM792.545 71.4545L793.484 71.1099L793.244 70.4545H792.545V71.4545ZM809.636 118V119H811.069L810.575 117.655L809.636 118ZM803.727 118L802.785 118.335L803.021 119H803.727V118ZM789.818 78.8182L790.761 78.4836L790.524 77.8182H789.818V78.8182ZM789.455 78.8182V77.8182H788.748L788.512 78.4836L789.455 78.8182ZM777.727 99.8182V98.8182H776.727V99.8182H777.727ZM801.545 99.8182H802.545V98.8182H801.545V99.8182ZM801.545 104.818V105.818H802.545V104.818H801.545ZM777.727 104.818H776.727V105.818H777.727V104.818ZM775.545 118V117H769.636V118V119H775.545V118ZM769.636 118L770.575 118.345L787.666 71.7992L786.727 71.4545L785.789 71.1099L768.698 117.655L769.636 118ZM786.727 71.4545V72.4545H792.545V71.4545V70.4545H786.727V71.4545ZM792.545 71.4545L791.607 71.7992L808.698 118.345L809.636 118L810.575 117.655L793.484 71.1099L792.545 71.4545ZM809.636 118V117H803.727V118V119H809.636V118ZM803.727 118L804.67 117.665L790.761 78.4836L789.818 78.8182L788.876 79.1527L802.785 118.335L803.727 118ZM789.818 78.8182V77.8182H789.455V78.8182V79.8182H789.818V78.8182ZM789.455 78.8182L788.512 78.4836L774.603 117.665L775.545 118L776.488 118.335L790.397 79.1527L789.455 78.8182ZM777.727 99.8182V100.818H801.545V99.8182V98.8182H777.727V99.8182ZM801.545 99.8182H800.545V104.818H801.545H802.545V99.8182H801.545ZM801.545 104.818V103.818H777.727V104.818V105.818H801.545V104.818ZM777.727 104.818H778.727V99.8182H777.727H776.727V104.818H777.727ZM852.153 86V87H853.346L853.138 85.8255L852.153 86ZM846.517 86L845.538 86.2014L845.702 87H846.517V86ZM844.767 81.7273L843.935 82.282L843.94 82.289L844.767 81.7273ZM841.767 78.6364L841.179 79.4451L841.185 79.4494L841.191 79.4536L841.767 78.6364ZM837.881 76.7273L837.595 77.6857L837.595 77.6857L837.881 76.7273ZM825.767 78.2273L825.239 77.3783L825.236 77.3799L825.767 78.2273ZM820.335 84.5227L819.436 84.0854L819.434 84.0894L820.335 84.5227ZM820.335 104.932L819.434 105.365L819.436 105.369L820.335 104.932ZM825.767 111.227L825.236 112.075L825.239 112.076L825.767 111.227ZM837.881 112.727L837.595 111.769L837.595 111.769L837.881 112.727ZM841.767 110.841L842.348 111.655L842.35 111.653L841.767 110.841ZM844.767 107.727L843.937 107.17L843.935 107.173L844.767 107.727ZM846.517 103.455V102.455H845.703L845.538 103.251L846.517 103.455ZM852.153 103.455L853.138 103.63L853.348 102.455H852.153V103.455ZM849.835 109.841L848.977 109.328L848.977 109.328L849.835 109.841ZM845.653 114.636L846.269 115.424L846.274 115.421L845.653 114.636ZM840.04 117.614L839.728 116.664L839.726 116.664L840.04 117.614ZM822.835 115.727L822.304 116.574L822.304 116.574L822.835 115.727ZM815.54 107.455L816.436 107.01L816.436 107.01L815.54 107.455ZM815.54 82L814.644 81.5558L815.54 82ZM840.04 71.8409L839.726 72.7903L839.728 72.791L840.04 71.8409ZM845.653 74.8409L845.033 75.6253L845.037 75.6287L845.653 74.8409ZM849.835 79.6136L848.977 80.1261L848.978 80.1292L849.835 79.6136ZM852.153 86V85H846.517V86V87H852.153V86ZM846.517 86L847.497 85.7986C847.14 84.0633 846.51 82.5137 845.594 81.1655L844.767 81.7273L843.94 82.289C844.691 83.3954 845.228 84.6942 845.538 86.2014L846.517 86ZM844.767 81.7273L845.599 81.1726C844.714 79.8449 843.628 78.7249 842.343 77.8191L841.767 78.6364L841.191 79.4536C842.27 80.2145 843.184 81.1551 843.935 82.282L844.767 81.7273ZM841.767 78.6364L842.355 77.8276C841.094 76.9105 839.696 76.2245 838.166 75.7689L837.881 76.7273L837.595 77.6857C838.914 78.0785 840.107 78.6653 841.179 79.4451L841.767 78.6364ZM837.881 76.7273L838.166 75.7689C836.646 75.316 835.064 75.0909 833.426 75.0909V76.0909V77.0909C834.879 77.0909 836.267 77.2901 837.595 77.6857L837.881 76.7273ZM833.426 76.0909V75.0909C830.43 75.0909 827.692 75.8507 825.239 77.3783L825.767 78.2273L826.296 79.0762C828.417 77.7553 830.786 77.0909 833.426 77.0909V76.0909ZM825.767 78.2273L825.236 77.3799C822.782 78.9178 820.854 81.1699 819.436 84.0854L820.335 84.5227L821.235 84.9601C822.514 82.3301 824.207 80.3852 826.298 79.0746L825.767 78.2273ZM820.335 84.5227L819.434 84.0894C818.019 87.0325 817.335 90.5915 817.335 94.7273H818.335H819.335C819.335 90.8024 819.985 87.5585 821.236 84.9561L820.335 84.5227ZM818.335 94.7273H817.335C817.335 98.863 818.019 102.422 819.434 105.365L820.335 104.932L821.236 104.498C819.985 101.896 819.335 98.6521 819.335 94.7273H818.335ZM820.335 104.932L819.436 105.369C820.854 108.285 822.782 110.537 825.236 112.075L825.767 111.227L826.298 110.38C824.207 109.069 822.514 107.124 821.235 104.494L820.335 104.932ZM825.767 111.227L825.239 112.076C827.692 113.604 830.43 114.364 833.426 114.364V113.364V112.364C830.786 112.364 828.417 111.699 826.296 110.378L825.767 111.227ZM833.426 113.364V114.364C835.064 114.364 836.646 114.139 838.166 113.686L837.881 112.727L837.595 111.769C836.267 112.164 834.879 112.364 833.426 112.364V113.364ZM837.881 112.727L838.166 113.686C839.692 113.231 841.088 112.555 842.348 111.655L841.767 110.841L841.186 110.027C840.112 110.794 838.917 111.375 837.595 111.769L837.881 112.727ZM841.767 110.841L842.35 111.653C843.631 110.734 844.715 109.608 845.599 108.282L844.767 107.727L843.935 107.173C843.183 108.301 842.267 109.251 841.184 110.029L841.767 110.841ZM844.767 107.727L845.598 108.284C846.509 106.925 847.139 105.378 847.496 103.658L846.517 103.455L845.538 103.251C845.228 104.743 844.691 106.045 843.937 107.17L844.767 107.727ZM846.517 103.455V104.455H852.153V103.455V102.455H846.517V103.455ZM852.153 103.455L851.169 103.279C850.764 105.551 850.03 107.564 848.977 109.328L849.835 109.841L850.694 110.353C851.883 108.361 852.695 106.115 853.138 103.63L852.153 103.455ZM849.835 109.841L848.977 109.328C847.916 111.106 846.602 112.611 845.033 113.852L845.653 114.636L846.274 115.421C848.039 114.025 849.512 112.333 850.694 110.353L849.835 109.841ZM845.653 114.636L845.037 113.849C843.465 115.078 841.697 116.017 839.728 116.664L840.04 117.614L840.352 118.564C842.534 117.847 844.509 116.801 846.269 115.424L845.653 114.636ZM840.04 117.614L839.726 116.664C837.774 117.31 835.677 117.636 833.426 117.636V118.636V119.636C835.873 119.636 838.184 119.281 840.354 118.563L840.04 117.614ZM833.426 118.636V117.636C829.627 117.636 826.284 116.711 823.367 114.88L822.835 115.727L822.304 116.574C825.568 118.622 829.286 119.636 833.426 119.636V118.636ZM822.835 115.727L823.367 114.88C820.447 113.048 818.134 110.437 816.436 107.01L815.54 107.455L814.644 107.899C816.491 111.624 819.042 114.528 822.304 116.574L822.835 115.727ZM815.54 107.455L816.436 107.01C814.745 103.601 813.881 99.5171 813.881 94.7273H812.881H811.881C811.881 99.7557 812.789 104.157 814.644 107.899L815.54 107.455ZM812.881 94.7273H813.881C813.881 89.9375 814.745 85.8538 816.436 82.4442L815.54 82L814.644 81.5558C812.789 85.2978 811.881 89.6989 811.881 94.7273H812.881ZM815.54 82L816.436 82.4442C818.134 79.0177 820.447 76.4065 823.367 74.5743L822.835 73.7273L822.304 72.8802C819.042 74.9268 816.491 77.8308 814.644 81.5558L815.54 82ZM822.835 73.7273L823.367 74.5743C826.284 72.7436 829.627 71.8182 833.426 71.8182V70.8182V69.8182C829.286 69.8182 825.568 70.8321 822.304 72.8802L822.835 73.7273ZM833.426 70.8182V71.8182C835.677 71.8182 837.774 72.1446 839.726 72.7903L840.04 71.8409L840.354 70.8915C838.184 70.1735 835.873 69.8182 833.426 69.8182V70.8182ZM840.04 71.8409L839.728 72.791C841.695 73.4371 843.461 74.3821 845.033 75.6252L845.653 74.8409L846.274 74.0566C844.512 72.6634 842.536 71.6083 840.352 70.8908L840.04 71.8409ZM845.653 74.8409L845.037 75.6287C846.604 76.8531 847.916 78.3496 848.977 80.1261L849.835 79.6136L850.694 79.1012C849.512 77.1201 848.037 75.4347 846.269 74.0531L845.653 74.8409ZM849.835 79.6136L848.978 80.1292C850.029 81.8763 850.763 83.887 851.169 86.1745L852.153 86L853.138 85.8255C852.695 83.3252 851.883 81.0783 850.692 79.0981L849.835 79.6136ZM861.261 118H860.261V119H861.261V118ZM861.261 71.4545V70.4545H860.261V71.4545H861.261ZM866.898 71.4545H867.898V70.4545H866.898V71.4545ZM866.898 92.1818H865.898V93.1818H866.898V92.1818ZM891.716 92.1818V93.1818H892.716V92.1818H891.716ZM891.716 71.4545V70.4545H890.716V71.4545H891.716ZM897.352 71.4545H898.352V70.4545H897.352V71.4545ZM897.352 118V119H898.352V118H897.352ZM891.716 118H890.716V119H891.716V118ZM891.716 97.1818H892.716V96.1818H891.716V97.1818ZM866.898 97.1818V96.1818H865.898V97.1818H866.898ZM866.898 118V119H867.898V118H866.898ZM861.261 118H862.261V71.4545H861.261H860.261V118H861.261ZM861.261 71.4545V72.4545H866.898V71.4545V70.4545H861.261V71.4545ZM866.898 71.4545H865.898V92.1818H866.898H867.898V71.4545H866.898ZM866.898 92.1818V93.1818H891.716V92.1818V91.1818H866.898V92.1818ZM891.716 92.1818H892.716V71.4545H891.716H890.716V92.1818H891.716ZM891.716 71.4545V72.4545H897.352V71.4545V70.4545H891.716V71.4545ZM897.352 71.4545H896.352V118H897.352H898.352V71.4545H897.352ZM897.352 118V117H891.716V118V119H897.352V118ZM891.716 118H892.716V97.1818H891.716H890.716V118H891.716ZM891.716 97.1818V96.1818H866.898V97.1818V98.1818H891.716V97.1818ZM866.898 97.1818H865.898V118H866.898H867.898V97.1818H866.898ZM866.898 118V117H861.261V118V119H866.898V118Z" fill="black" mask="url(#path-3-outside-1_0_1)"/>
</g>
</g>
<defs>
<filter id="filter0_dd_0_1" x="-4" y="0" width="1448" height="302.8" filterUnits="userSpaceOnUse" color-interpolation-filters="sRGB">
<feFlood flood-opacity="0" result="BackgroundImageFix"/>
<feColorMatrix in="SourceAlpha" type="matrix" values="0 0 0 0 0 0 0 0 0 0 0 0 0 0 0 0 0 0 127 0" result="hardAlpha"/>
<feOffset dy="4"/>
<feGaussianBlur stdDeviation="2"/>
<feComposite in2="hardAlpha" operator="out"/>
<feColorMatrix type="matrix" values="0 0 0 0 0 0 0 0 0 0 0 0 0 0 0 0 0 0 0.25 0"/>
<feBlend mode="normal" in2="BackgroundImageFix" result="effect1_dropShadow_0_1"/>
<feColorMatrix in="SourceAlpha" type="matrix" values="0 0 0 0 0 0 0 0 0 0 0 0 0 0 0 0 0 0 127 0" result="hardAlpha"/>
<feOffset dy="4"/>
<feGaussianBlur stdDeviation="2"/>
<feComposite in2="hardAlpha" operator="out"/>
<feColorMatrix type="matrix" values="0 0 0 0 0 0 0 0 0 0 0 0 0 0 0 0 0 0 0.25 0"/>
<feBlend mode="normal" in2="effect1_dropShadow_0_1" result="effect2_dropShadow_0_1"/>
<feBlend mode="normal" in="SourceGraphic" in2="effect2_dropShadow_0_1" result="shape"/>
</filter>
<filter id="filter1_d_0_1" x="527.818" y="69.8182" width="374.534" height="57.8182" filterUnits="userSpaceOnUse" color-interpolation-filters="sRGB">
<feFlood flood-opacity="0" result="BackgroundImageFix"/>
<feColorMatrix in="SourceAlpha" type="matrix" values="0 0 0 0 0 0 0 0 0 0 0 0 0 0 0 0 0 0 127 0" result="hardAlpha"/>
<feOffset dy="4"/>
<feGaussianBlur stdDeviation="2"/>
<feComposite in2="hardAlpha" operator="out"/>
<feColorMatrix type="matrix" values="0 0 0 0 0 0 0 0 0 0 0 0 0 0 0 0 0 0 0.25 0"/>
<feBlend mode="normal" in2="BackgroundImageFix" result="effect1_dropShadow_0_1"/>
<feBlend mode="normal" in="SourceGraphic" in2="effect1_dropShadow_0_1" result="shape"/>
</filter>
<clipPath id="clip0_0_1">
<rect width="1440" height="320" fill="white"/>
</clipPath>
</defs>
</svg>
